# xmcd
#
# Track frame offsets: 
#        150
#        24474
#        40935
#        61093
#        78609
#        98543
#        115464
#        131142
#        145838
#        160255
#        181690
#        213018
#
# Disc length: 3105 seconds
#
# Revision: 0
# Processed by: cddbd v1.5.2PL0 Copyright (c) Steve Scherf et al.
# Submitted via: ExactAudioCopyFreeDBPlugin 1.0
#
DISCID=990c1f0c
DTITLE=Peter Shaw - A New Life Has Begun
DYEAR=2011
DGENRE=New Zealand: Country/Blues
TTITLE0=Aotearoa
TTITLE1=Invisible One
TTITLE2=A New Life Has Begun
TTITLE3=Drink the Water
TTITLE4=The Man in the Glass
TTITLE5=Make a Difference
TTITLE6=Protection from Myself
TTITLE7=You're Special
TTITLE8=Somebody loves You
TTITLE9=Line Above
TTITLE10=Alone Without You
TTITLE11=A Time Must Come
EXTD=
EXTT0=
EXTT1=
EXTT2=
EXTT3=
EXTT4=
EXTT5=
EXTT6=
EXTT7=
EXTT8=
EXTT9=
EXTT10=
EXTT11=
PLAYORDER=
